<svg xmlns="http://www.w3.org/2000/svg" viewBox="0 0 48 48" width="48" height="48" role="img" aria-labelledby="title">
  <title id="title">Google</title>
  <path fill="#EA4335" d="M24 9.5c3.54 0 6.7 1.23 9.19 3.64l6.85-6.85C35.9 2.38 30.55 0 24 0 14.62 0 6.51 5.38 2.56 13.22l7.98 6.19C12.43 13.52 17.74 9.5 24 9.5z"/>
  <path fill="#4285F4" d="M46.5 24.5c0-1.56-.14-3.06-.39-4.5H24v9h12.65c-.55 2.96-2.22 5.48-4.74 7.17l7.34 5.69C43.86 38.1 46.5 31.86 46.5 24.5z"/>
  <path fill="#FBBC05" d="M10.54 27.59a14.47 14.47 0 0 1 0-9.18l-7.98-6.19A23.955 23.955 0 0 0 0 24c0 3.9.93 7.59 2.56 10.78l7.98-6.19z"/>
  <path fill="#34A853" d="M24 48c6.55 0 12.06-2.17 16.08-5.89l-7.34-5.69c-2.05 1.38-4.69 2.2-8.74 2.2-6.26 0-11.57-4.02-13.46-9.52l-7.98 6.19C6.51 42.62 14.62 48 24 48z"/>
</svg>